<svg width="17" height="23" viewBox="0 0 17 23" fill="none" xmlns="http://www.w3.org/2000/svg">
<path d="M4.62443 22.0024C4.22645 21.7162 3.87372 21.3625 3.57981 20.955C3.25651 20.5343 2.95696 20.093 2.6828 19.6334C2.03942 18.6145 1.53487 17.5009 1.18462 16.3268C0.763871 14.9629 0.56012 13.6557 0.56012 12.3771C0.56012 10.9491 0.845877 9.7026 1.40477 8.65517C1.81908 7.83649 2.42821 7.15234 3.16915 6.67351C3.88721 6.19138 4.71226 5.92753 5.5574 5.90976C5.85325 5.90976 6.17181 5.95613 6.50992 6.04478C6.75278 6.11911 7.04863 6.2364 7.41009 6.38233C7.86995 6.57395 8.1229 6.69124 8.20869 6.71988C8.47805 6.82626 8.70451 6.87263 8.8824 6.87263C9.01739 6.87263 9.2079 6.82626 9.42426 6.75534C9.54601 6.70897 9.77563 6.62714 10.1043 6.47508C10.4298 6.34687 10.6859 6.23709 10.8896 6.15526C11.2019 6.0557 11.504 5.96364 11.7734 5.91727C12.0927 5.86284 12.4168 5.84843 12.7392 5.8743C13.2978 5.91378 13.8481 6.04175 14.3723 6.25413C15.2296 6.62714 15.9229 7.2095 16.4389 8.03735C16.2208 8.18267 16.0161 8.35028 15.8276 8.53788C15.4173 8.93106 15.0679 9.39264 14.7925 9.90513C14.4325 10.6055 14.2458 11.3945 14.2506 12.1957C14.2638 13.1797 14.4972 14.0464 14.9571 14.7959C15.2952 15.3513 15.7346 15.8263 16.2484 16.1917C16.5114 16.3834 16.7379 16.515 16.9549 16.6036C16.8533 16.9446 16.7448 17.2746 16.6168 17.602C16.3263 18.336 15.9743 19.0397 15.5652 19.7043C15.2006 20.2764 14.9148 20.7026 14.6978 20.9863C14.3597 21.4193 14.0342 21.7501 13.7056 21.9806C13.3441 22.2397 12.9171 22.3781 12.4831 22.3781C12.1891 22.3903 11.8953 22.3519 11.6125 22.2642C11.3697 22.1756 11.1293 22.0794 10.8928 21.9697C10.6469 21.8475 10.3933 21.7443 10.1339 21.6607C9.49284 21.4827 8.82066 21.4816 8.17905 21.6573C7.916 21.7392 7.66304 21.8346 7.41324 21.9519C7.06188 22.1115 6.82848 22.2186 6.69349 22.2642C6.42413 22.3495 6.14468 22.4027 5.86208 22.4204C5.42493 22.4204 5.01742 22.2854 4.61371 22.0119L4.62443 22.0024ZM10.39 5.21693C9.81852 5.52584 9.27287 5.65745 8.731 5.61449C8.64584 5.02463 8.731 4.42113 8.95746 3.76035C9.15026 3.20054 9.43514 2.68305 9.79834 2.23285C10.1819 1.75893 10.6473 1.37048 11.1685 1.08927C11.7236 0.780365 12.2528 0.613294 12.7587 0.588745C12.8243 1.20656 12.7587 1.81415 12.5487 2.47084C12.3543 3.05135 12.0699 3.59187 11.7078 4.06926C11.3382 4.54383 10.8846 4.93379 10.3736 5.21625L10.39 5.21693Z" fill="black"/>
</svg>
