<svg width="19" height="21" viewBox="0 0 19 21" fill="none" xmlns="http://www.w3.org/2000/svg">
<path d="M4.61009 12.5693L3.97132 15.1471L1.63664 15.2005C0.938914 13.8016 0.543152 12.2009 0.543152 10.5C0.543152 8.85524 0.91318 7.30418 1.56908 5.93845H1.56958L3.6481 6.35039L4.55862 8.58383C4.36805 9.18442 4.26418 9.82915 4.26418 10.5C4.26425 11.2281 4.38626 11.9257 4.61009 12.5693Z" fill="#FBBB00"/>
<path d="M18.7337 8.64699C18.8391 9.247 18.894 9.86666 18.894 10.4999C18.894 11.2101 18.8249 11.9028 18.6934 12.5709C18.2467 14.8446 17.0796 16.83 15.4628 18.235L15.4623 18.2345L12.8443 18.0901L12.4738 15.5896C13.5466 14.9095 14.385 13.8451 14.8266 12.5709H9.92029V8.64699H14.8982H18.7337Z" fill="#518EF8"/>
<path d="M15.4623 18.2345L15.4628 18.2351C13.8904 19.6014 11.893 20.4188 9.71859 20.4188C6.22437 20.4188 3.18641 18.3076 1.63666 15.2006L4.6101 12.5694C5.38496 14.8049 7.37986 16.3963 9.71859 16.3963C10.7238 16.3963 11.6656 16.1025 12.4737 15.5897L15.4623 18.2345Z" fill="#28B446"/>
<path d="M15.5752 2.86466L12.6028 5.49532C11.7664 4.93018 10.7778 4.60371 9.71859 4.60371C7.32692 4.60371 5.29471 6.2681 4.55867 8.5838L1.56959 5.93842H1.56909C3.09615 2.75567 6.17243 0.581161 9.71859 0.581161C11.9449 0.581161 13.9862 1.43844 15.5752 2.86466Z" fill="#F14336"/>
</svg>
